<?xml version="1.0" encoding="iso-8859-1"?>
<!-- Uploaded to: SVG Repo, www.svgrepo.com, Generator: SVG Repo Mixer Tools -->
<svg fill="#000000" height="24px" width="24px" version="1.1" id="Layer_1" xmlns="http://www.w3.org/2000/svg" xmlns:xlink="http://www.w3.org/1999/xlink" 
	 viewBox="0 0 512 512" xml:space="preserve">
<g>
	<g>
		<path d="M427.759,220.723c4.838-12.407,7.441-28.595,7.441-50.21C435.2,60.646,371.465,0,256,0S76.8,60.646,76.8,170.513
			c0,21.615,2.594,37.803,7.441,50.21C64.06,234.684,51.2,252.279,51.2,273.937c0,27.605,9.617,37.53,31.829,39.834
			C90.914,424.806,165.12,512,256,512s165.086-87.194,172.971-198.229c22.204-2.304,31.829-12.228,31.829-39.834
			C460.8,252.271,447.932,234.684,427.759,220.723z M256,25.6c101.922,0,153.6,48.751,153.6,144.913
			c0,16.657-1.468,28.45-4.326,37.35C363.46,188.314,305.152,179.2,256,179.2s-107.46,9.114-149.274,28.663
			c-2.859-8.9-4.326-20.693-4.326-37.35C102.4,74.351,154.078,25.6,256,25.6z M256,486.4c-76.732,0-139.699-75.767-147.345-172.416
			c32.538-1.732,80.384-8.465,147.345-8.465c66.97,0,114.807,6.724,147.345,8.465C395.699,410.633,332.732,486.4,256,486.4z
			 M433.86,286.737c-0.606,0.35-4.215,2.057-17.058,2.057c-11.554,0-26.377-1.297-45.15-2.935
			c-30.242-2.645-67.883-5.931-115.652-5.931c-47.761,0-85.402,3.294-115.644,5.931c-18.773,1.638-33.604,2.935-45.158,2.935
			c-12.595,0-16.307-1.638-16.631-1.638c-0.026,0-0.026,0.009-0.017,0.026c-0.017-0.026-1.749-2.884-1.749-13.244
			c0-40.747,94.438-69.137,179.2-69.137s179.2,28.39,179.2,69.137C435.2,283.452,433.732,286.635,433.86,286.737z"/>
	</g>
</g>
<g>
	<g>
		<path d="M307.2,76.8H204.8c-14.14,0-25.6,11.46-25.6,25.6V128c0,14.14,11.46,25.6,25.6,25.6h102.4c14.14,0,25.6-11.46,25.6-25.6
			v-25.6C332.8,88.26,321.34,76.8,307.2,76.8z M307.2,128H204.8v-25.6h102.4V128z"/>
	</g>
</g>
</svg>