<svg viewBox="0 0 120 120" xmlns="http://www.w3.org/2000/svg">
  <g transform="rotate(15, 80, 50)">
    <rect x="75" y="20" width="16" height="45" rx="8" fill="#F4A261" />
    <line x1="78" y1="30" x2="88" y2="28" stroke="#E76F51" stroke-width="2" stroke-linecap="round" />
    <line x1="78" y1="40" x2="88" y2="38" stroke="#E76F51" stroke-width="2" stroke-linecap="round" />
    <line x1="78" y1="50" x2="88" y2="48" stroke="#E76F51" stroke-width="2" stroke-linecap="round" />
  </g>
  <path d="M45,55 L45,20 L55,10 L65,20 L65,55 Z" fill="#2A9D8F" />
  <rect x="45" y="30" width="20" height="15" fill="#FFF" />
  <line x1="49" y1="35" x2="61" y2="35" stroke="#E9C46A" stroke-width="2" stroke-linecap="round" />
  <line x1="49" y1="40" x2="57" y2="40" stroke="#E9C46A" stroke-width="2" stroke-linecap="round" />
  <circle cx="35" cy="40" r="14" fill="#E63946" />
  <path d="M35,26 Q42,16 48,22 Q42,28 35,26 Z" fill="#80B918" />
  <polygon points="18,48 92,48 80,88 32,88" fill="rgba(0,0,0,0.05)" />
  <polygon points="15,50 95,50 80,90 30,90" fill="none" stroke="#475569" stroke-width="4" stroke-linejoin="round" />
  <line x1="38" y1="50" x2="43" y2="90" stroke="#475569" stroke-width="3" stroke-linecap="round" />
  <line x1="55" y1="50" x2="55" y2="90" stroke="#475569" stroke-width="3" stroke-linecap="round" />
  <line x1="72" y1="50" x2="67" y2="90" stroke="#475569" stroke-width="3" stroke-linecap="round" />
  <line x1="21" y1="63" x2="88" y2="63" stroke="#475569" stroke-width="3" stroke-linecap="round" />
  <line x1="26" y1="77" x2="84" y2="77" stroke="#475569" stroke-width="3" stroke-linecap="round" />
  <line x1="30" y1="90" x2="25" y2="105" stroke="#475569" stroke-width="4" stroke-linecap="round" />
  <line x1="80" y1="90" x2="80" y2="105" stroke="#475569" stroke-width="4" stroke-linecap="round" />
  <line x1="25" y1="105" x2="80" y2="105" stroke="#475569" stroke-width="4" stroke-linecap="round" />
  <circle cx="25" cy="105" r="7" fill="#EF476F" />
  <circle cx="80" cy="105" r="7" fill="#EF476F" />
  <circle cx="25" cy="105" r="2.5" fill="#FFF" />
  <circle cx="80" cy="105" r="2.5" fill="#FFF" />
  <path d="M95,50 L108,35 L116,35" fill="none" stroke="#475569" stroke-width="4" stroke-linecap="round" stroke-linejoin="round" />
  <line x1="106" y1="35" x2="118" y2="35" stroke="#EF476F" stroke-width="8" stroke-linecap="round" />
</svg>