<svg viewBox="0 0 120 120" xmlns="http://www.w3.org/2000/svg">
  <g transform="translate(60, 60)">
     <path d="M0,-35 Q0,0 35,0 Q0,0 0,35 Q0,0 -35,0 Q0,0 0,-35 Z" fill="#FFB703" />
     <path d="M0,-35 Q0,0 -35,0 Q0,0 0,35 Z" fill="#FFD166" />
  </g>
  <g transform="translate(35, 30)">
     <path d="M0,-15 Q0,0 15,0 Q0,0 0,15 Q0,0 -15,0 Q0,0 0,-15 Z" fill="#FFB703" />
     <path d="M0,-15 Q0,0 -15,0 Q0,0 0,15 Z" fill="#FFD166" />
  </g>
  <g transform="translate(85, 80)">
     <path d="M0,-15 Q0,0 15,0 Q0,0 0,15 Q0,0 -15,0 Q0,0 0,-15 Z" fill="#FFB703" />
     <path d="M0,-15 Q0,0 -15,0 Q0,0 0,15 Z" fill="#FFD166" />
  </g>
</svg>