<svg preserveAspectRatio="none" width="100%" height="100%" overflow="visible" style="display: block;" viewBox="0 0 30 20" fill="none" xmlns="http://www.w3.org/2000/svg">
<g id="Container">
<path id="Icon" d="M6.25 20C4.47917 20 2.99479 19.401 1.79688 18.2031C0.598958 17.0052 0 15.5208 0 13.75C0 11.9792 0.609375 10.4948 1.82812 9.29688C3.04688 8.09896 4.52083 7.5 6.25 7.5C7.85417 7.5 9.20312 7.97917 10.2969 8.9375C11.3906 9.89583 12.0833 11.0833 12.375 12.5H13.1875L10.9375 6.25H8.75V3.75H15V6.25H13.625L14.0625 7.5H20.0625L18.25 2.5V2.5V2.5H15V0H18.25C18.7917 0 19.276 0.145833 19.7031 0.4375C20.1302 0.729167 20.4375 1.125 20.625 1.625L22.75 7.4375H23.75C25.4792 7.4375 26.9531 8.04688 28.1719 9.26562C29.3906 10.4844 30 11.9583 30 13.6875C30 15.4375 29.3958 16.9271 28.1875 18.1562C26.9792 19.3854 25.5 20 23.75 20C22.25 20 20.9323 19.5312 19.7969 18.5938C18.6615 17.6562 17.9375 16.4583 17.625 15H12.375C12.0833 16.4375 11.375 17.6302 10.25 18.5781C9.125 19.526 7.79167 20 6.25 20V20M6.25 17.5C7.10417 17.5 7.83854 17.2656 8.45312 16.7969C9.06771 16.3281 9.5 15.7292 9.75 15H6.25V12.5H9.75C9.5 11.75 9.06771 11.1458 8.45312 10.6875C7.83854 10.2292 7.10417 10 6.25 10C5.1875 10 4.29688 10.3594 3.57812 11.0781C2.85938 11.7969 2.5 12.6875 2.5 13.75C2.5 14.7917 2.85938 15.6771 3.57812 16.4062C4.29688 17.1354 5.1875 17.5 6.25 17.5V17.5M15.875 12.5H17.625C17.7292 12.0208 17.8698 11.5729 18.0469 11.1562C18.224 10.7396 18.4583 10.3542 18.75 10H14.9375L15.875 12.5V12.5M23.75 17.5C24.8125 17.5 25.7031 17.1354 26.4219 16.4062C27.1406 15.6771 27.5 14.7917 27.5 13.75C27.5 12.6875 27.1406 11.7969 26.4219 11.0781C25.7031 10.3594 24.8125 10 23.75 10C23.7083 10 23.6875 10 23.6875 10C23.6875 10 23.6667 10 23.625 10L24.875 13.3125L22.5 14.1875L21.3125 10.875C20.8958 11.2292 20.5729 11.6458 20.3438 12.125C20.1146 12.6042 20 13.1458 20 13.75C20 14.7917 20.3594 15.6771 21.0781 16.4062C21.7969 17.1354 22.6875 17.5 23.75 17.5V17.5M6.125 13.75V13.75V13.75V13.75V13.75V13.75V13.75V13.75V13.75V13.75V13.75M23.75 13.75V13.75V13.75V13.75V13.75V13.75V13.75V13.75V13.75V13.75V13.75V13.75V13.75" fill="var(--fill-0, white)"/>
</g>
</svg>
