<svg preserveAspectRatio="none" width="100%" height="100%" overflow="visible" style="display: block;" viewBox="0 0 25.1173 22.5" fill="none" xmlns="http://www.w3.org/2000/svg">
<g id="Container">
<path id="Icon" d="M23.8087 10.0625V20C23.8087 20.6875 23.5639 21.276 23.0743 21.7656C22.5847 22.2552 21.9962 22.5 21.3087 22.5H3.80867C3.12117 22.5 2.53263 22.2552 2.04305 21.7656C1.55347 21.276 1.30867 20.6875 1.30867 20V10.0625C0.829507 9.625 0.459715 9.0625 0.199298 8.375C-0.0611182 7.6875 -0.0663265 6.9375 0.183673 6.125L1.49617 1.875C1.66284 1.33333 1.95972 0.885417 2.3868 0.53125C2.81388 0.177083 3.30867 0 3.87117 0H21.2462C21.8087 0 22.2983 0.171875 22.7149 0.515625C23.1316 0.859375 23.4337 1.3125 23.6212 1.875L24.9337 6.125C25.1837 6.9375 25.1785 7.67708 24.918 8.34375C24.6576 9.01042 24.2878 9.58333 23.8087 10.0625V10.0625M15.3087 8.75C15.8712 8.75 16.2983 8.55729 16.5899 8.17188C16.8816 7.78646 16.9962 7.35417 16.9337 6.875L16.2462 2.5H13.8087V7.125C13.8087 7.5625 13.9545 7.94271 14.2462 8.26562C14.5378 8.58854 14.892 8.75 15.3087 8.75V8.75M9.68367 8.75C10.1628 8.75 10.5535 8.58854 10.8555 8.26562C11.1576 7.94271 11.3087 7.5625 11.3087 7.125V2.5H8.87117L8.18367 6.875C8.10034 7.375 8.20972 7.8125 8.5118 8.1875C8.81388 8.5625 9.20451 8.75 9.68367 8.75V8.75M4.12117 8.75C4.49617 8.75 4.8243 8.61458 5.10555 8.34375C5.3868 8.07292 5.55867 7.72917 5.62117 7.3125L6.30867 2.5H3.87117V2.5V2.5L2.62117 6.6875C2.49617 7.10417 2.56388 7.55208 2.8243 8.03125C3.08472 8.51042 3.51701 8.75 4.12117 8.75V8.75M20.9962 8.75C21.6003 8.75 22.0378 8.51042 22.3087 8.03125C22.5795 7.55208 22.642 7.10417 22.4962 6.6875L21.1837 2.5V2.5V2.5H18.8087L19.4962 7.3125C19.5587 7.72917 19.7305 8.07292 20.0118 8.34375C20.293 8.61458 20.6212 8.75 20.9962 8.75V8.75M3.80867 20H21.3087V20V20V11.1875C21.2045 11.2292 21.1368 11.25 21.1055 11.25C21.0743 11.25 21.0378 11.25 20.9962 11.25C20.4337 11.25 19.9389 11.1562 19.5118 10.9688C19.0847 10.7812 18.6628 10.4792 18.2462 10.0625C17.8712 10.4375 17.4441 10.7292 16.9649 10.9375C16.4858 11.1458 15.9753 11.25 15.4337 11.25C14.8712 11.25 14.3451 11.1458 13.8555 10.9375C13.366 10.7292 12.9337 10.4375 12.5587 10.0625C12.2045 10.4375 11.793 10.7292 11.3243 10.9375C10.8555 11.1458 10.3503 11.25 9.80867 11.25C9.20451 11.25 8.65763 11.1458 8.16805 10.9375C7.67847 10.7292 7.24617 10.4375 6.87117 10.0625C6.43367 10.5 6.00138 10.8073 5.5743 10.9844C5.14722 11.1615 4.66284 11.25 4.12117 11.25C4.07951 11.25 4.03263 11.25 3.98055 11.25C3.92847 11.25 3.87117 11.2292 3.80867 11.1875V20V20V20V20M21.3087 20H3.80867V20V20V20C3.87117 20 3.92847 20 3.98055 20C4.03263 20 4.07951 20 4.12117 20C4.66284 20 5.14722 20 5.5743 20C6.00138 20 6.43367 20 6.87117 20C7.05867 20 7.2618 20 7.48055 20C7.6993 20 7.93367 20 8.18367 20C8.43367 20 8.69409 20 8.96492 20C9.23576 20 9.51701 20 9.80867 20C10.0795 20 10.3399 20 10.5899 20C10.8399 20 11.0847 20 11.3243 20C11.5639 20 11.7878 20 11.9962 20C12.2045 20 12.392 20 12.5587 20C12.9337 20 13.366 20 13.8555 20C14.3451 20 14.8712 20 15.4337 20C15.7045 20 15.9649 20 16.2149 20C16.4649 20 16.7097 20 16.9493 20C17.1889 20 17.418 20 17.6368 20C17.8555 20 18.0587 20 18.2462 20C18.6628 20 19.0847 20 19.5118 20C19.9389 20 20.4337 20 20.9962 20C21.0378 20 21.0743 20 21.1055 20C21.1368 20 21.2045 20 21.3087 20V20V20V20V20" fill="var(--fill-0, white)"/>
</g>
</svg>
