<svg preserveAspectRatio="none" width="100%" height="100%" overflow="visible" style="display: block;" viewBox="0 0 33 24" fill="none" xmlns="http://www.w3.org/2000/svg">
<g id="Container">
<path id="Icon" d="M19.5 13.5C18.25 13.5 17.1875 13.0625 16.3125 12.1875C15.4375 11.3125 15 10.25 15 9C15 7.75 15.4375 6.6875 16.3125 5.8125C17.1875 4.9375 18.25 4.5 19.5 4.5C20.75 4.5 21.8125 4.9375 22.6875 5.8125C23.5625 6.6875 24 7.75 24 9C24 10.25 23.5625 11.3125 22.6875 12.1875C21.8125 13.0625 20.75 13.5 19.5 13.5V13.5M9 18C8.175 18 7.46875 17.7062 6.88125 17.1187C6.29375 16.5312 6 15.825 6 15V3C6 2.175 6.29375 1.46875 6.88125 0.88125C7.46875 0.29375 8.175 0 9 0H30C30.825 0 31.5313 0.29375 32.1188 0.88125C32.7063 1.46875 33 2.175 33 3V15C33 15.825 32.7063 16.5312 32.1188 17.1187C31.5313 17.7062 30.825 18 30 18H9V18M12 15H27C27 14.175 27.2938 13.4688 27.8813 12.8813C28.4688 12.2938 29.175 12 30 12V6C29.175 6 28.4688 5.70625 27.8813 5.11875C27.2938 4.53125 27 3.825 27 3H12C12 3.825 11.7062 4.53125 11.1187 5.11875C10.5312 5.70625 9.825 6 9 6V12C9.825 12 10.5312 12.2938 11.1187 12.8813C11.7062 13.4688 12 14.175 12 15V15M28.5 24H3C2.175 24 1.46875 23.7062 0.88125 23.1187C0.29375 22.5312 0 21.825 0 21V4.5H3V21V21V21H28.5V24V24M9 15V15V15V15V3V3V3V3V3V3V15V15V15V15" fill="var(--fill-0, #FE6132)"/>
</g>
</svg>
