<svg preserveAspectRatio="none" width="100%" height="100%" overflow="visible" style="display: block;" viewBox="0 0 27.4697 23.75" fill="none" xmlns="http://www.w3.org/2000/svg">
<g id="Container">
<path id="Icon" d="M5.6411 23.75C5.0786 23.75 4.5786 23.5781 4.1411 23.2344C3.7036 22.8906 3.40152 22.4479 3.23485 21.9062L0.0473485 10.3438C-0.0568182 9.94792 0.0108902 9.58333 0.250473 9.25C0.490057 8.91667 0.818182 8.75 1.23485 8.75H7.17235L12.6723 0.5625C12.7765 0.395833 12.9223 0.260417 13.1098 0.15625C13.2973 0.0520833 13.4953 0 13.7036 0C13.9119 0 14.1098 0.0520833 14.2973 0.15625C14.4848 0.260417 14.6307 0.395833 14.7348 0.5625L20.2348 8.75H26.2348C26.6515 8.75 26.9796 8.91667 27.2192 9.25C27.4588 9.58333 27.5265 9.94792 27.4223 10.3438L24.2348 21.9062C24.0682 22.4479 23.7661 22.8906 23.3286 23.2344C22.8911 23.5781 22.3911 23.75 21.8286 23.75H5.6411V23.75M5.60985 21.25H21.8598V21.25V21.25L24.6098 11.25H2.85985L5.60985 21.25V21.25V21.25V21.25M13.7348 18.75C14.4223 18.75 15.0109 18.5052 15.5005 18.0156C15.9901 17.526 16.2348 16.9375 16.2348 16.25C16.2348 15.5625 15.9901 14.974 15.5005 14.4844C15.0109 13.9948 14.4223 13.75 13.7348 13.75C13.0473 13.75 12.4588 13.9948 11.9692 14.4844C11.4796 14.974 11.2348 15.5625 11.2348 16.25C11.2348 16.9375 11.4796 17.526 11.9692 18.0156C12.4588 18.5052 13.0473 18.75 13.7348 18.75V18.75M10.2036 8.75H17.2348L13.7036 3.5L10.2036 8.75V8.75M13.7348 16.25V16.25V16.25V16.25V16.25V16.25V16.25V16.25V16.25V16.25" fill="var(--fill-0, white)"/>
</g>
</svg>
