<svg preserveAspectRatio="none" width="100%" height="100%" overflow="visible" style="display: block;" viewBox="0 0 10.5 12.25" fill="none" xmlns="http://www.w3.org/2000/svg">
<g id="Container">
<path id="Icon" d="M1.16667 12.25C0.845833 12.25 0.571181 12.1358 0.342708 11.9073C0.114236 11.6788 0 11.4042 0 11.0833V4.08333C0 3.7625 0.114236 3.48785 0.342708 3.25938C0.571181 3.0309 0.845833 2.91667 1.16667 2.91667H2.33333C2.33333 2.10972 2.61771 1.42188 3.18646 0.853125C3.75521 0.284375 4.44306 0 5.25 0C6.05694 0 6.74479 0.284375 7.31354 0.853125C7.88229 1.42188 8.16667 2.10972 8.16667 2.91667H9.33333C9.65417 2.91667 9.92882 3.0309 10.1573 3.25938C10.3858 3.48785 10.5 3.7625 10.5 4.08333V11.0833C10.5 11.4042 10.3858 11.6788 10.1573 11.9073C9.92882 12.1358 9.65417 12.25 9.33333 12.25H1.16667V12.25M1.16667 11.0833H9.33333V11.0833V11.0833V4.08333V4.08333V4.08333H1.16667V4.08333V4.08333V11.0833V11.0833V11.0833V11.0833M5.25 7.58333C6.05694 7.58333 6.74479 7.29896 7.31354 6.73021C7.88229 6.16146 8.16667 5.47361 8.16667 4.66667H7C7 5.15278 6.82986 5.56597 6.48958 5.90625C6.14931 6.24653 5.73611 6.41667 5.25 6.41667C4.76389 6.41667 4.35069 6.24653 4.01042 5.90625C3.67014 5.56597 3.5 5.15278 3.5 4.66667H2.33333C2.33333 5.47361 2.61771 6.16146 3.18646 6.73021C3.75521 7.29896 4.44306 7.58333 5.25 7.58333V7.58333M3.5 2.91667H7C7 2.43056 6.82986 2.01736 6.48958 1.67708C6.14931 1.33681 5.73611 1.16667 5.25 1.16667C4.76389 1.16667 4.35069 1.33681 4.01042 1.67708C3.67014 2.01736 3.5 2.43056 3.5 2.91667V2.91667M1.16667 11.0833V11.0833V11.0833V4.08333V4.08333V4.08333V4.08333V4.08333V4.08333V11.0833V11.0833V11.0833V11.0833V11.0833" fill="var(--fill-0, white)"/>
</g>
</svg>
